<svg width="35" height="34" viewBox="0 0 35 34" fill="none" xmlns="http://www.w3.org/2000/svg">
<path d="M34.0546 35.996H0.424744C0.485944 35.4006 0.789167 33.3304 2.3025 30.6843C4.09957 27.5373 12.1113 27.9853 12.3811 27.5373C12.498 27.3426 12.5648 26.5496 12.6037 25.7176C12.651 24.638 12.651 23.4916 12.651 23.4916L17.2411 24.8439L21.8311 23.4916C21.8311 23.4916 21.8311 24.6297 21.8756 25.7176C21.9173 26.5523 21.9813 27.3565 22.1009 27.554C22.3791 28.002 30.3798 27.554 32.1796 30.701C33.6902 33.3304 33.9962 35.4006 34.0546 35.996Z" fill="#E1A387"/>
<path d="M34.0546 35.9956H0.424744C0.485944 35.4001 0.789167 33.33 2.3025 30.6839C3.81582 28.0378 9.78568 27.9293 11.7608 27.6955C12.1197 27.651 12.345 27.6065 12.3867 27.5369C12.3867 27.5369 17.1576 33.7474 22.1065 27.5369C22.151 27.6148 22.4348 27.6649 22.8799 27.715C24.983 27.9376 30.6997 28.0879 32.1852 30.6839C33.6902 33.33 33.9962 35.4001 34.0546 35.9956Z" fill="#860018"/>
<path d="M22.8738 27.715C18.9792 33.1324 14.3335 30.1636 11.7464 27.6955C12.1053 27.651 12.3306 27.6065 12.3723 27.5369C12.3723 27.5369 17.1432 33.7474 22.0921 27.5369C22.145 27.6148 22.4287 27.6649 22.8738 27.715Z" fill="#6B1524"/>
<path d="M9.38533 14.1147C9.38533 14.1147 7.25721 10.5197 6.37814 13.5999C5.49908 16.6801 7.62441 18.1492 9.01812 17.8571C10.4118 17.5649 9.38533 14.1147 9.38533 14.1147Z" fill="#E1A387"/>
<path d="M9.13842 14.7019C9.13842 14.7019 7.67239 12.4259 7.15774 13.3441C6.84451 13.9933 6.71831 14.7168 6.79332 15.4337C6.79332 15.4337 7.08541 14.151 8.03959 14.8772C8.03959 14.8772 7.12157 16.9307 8.99376 16.3436C8.98264 16.3519 9.75322 15.7287 9.13842 14.7019Z" fill="#CE8D75"/>
<path d="M24.6619 14.1147C24.6619 14.1147 26.79 10.5197 27.6691 13.5999C28.5481 16.6801 26.4228 18.1492 25.0291 17.8571C23.6354 17.5649 24.6619 14.1147 24.6619 14.1147Z" fill="#E1A387"/>
<path d="M24.6911 14.9408C24.6911 14.9408 26.1571 12.6648 26.6718 13.583C26.9851 14.2321 27.1122 14.9555 27.039 15.6726C27.039 15.6726 26.7441 14.3899 25.7899 15.1161C25.7899 15.1161 26.7079 17.1696 24.8358 16.5825C24.8358 16.5908 24.068 15.9675 24.6911 14.9408Z" fill="#CE8D75"/>
<path d="M24.7161 19.9834C24.5547 22.6267 21.542 24.5828 19.5724 25.4565C18.444 25.9828 17.1776 26.1367 15.956 25.8961C8.51179 23.7063 8.72321 18.6617 9.05704 17.2454C9.39086 15.8292 8.93462 13.0718 9.80812 9.79959C9.92061 9.37614 10.088 8.96922 10.3061 8.58922C11.6386 6.26309 14.4789 5.51461 14.4789 5.51461C19.4 2.33426 22.8439 5.45896 23.9789 8.01882C24.0543 8.18596 24.1212 8.35684 24.1792 8.53079C25.0388 11.1658 24.883 17.0173 24.7161 19.9834Z" fill="#F2C2AC"/>
<path fill-rule="evenodd" clip-rule="evenodd" d="M22.207 3.31156C22.2266 3.3067 22.2463 3.30198 22.266 3.2974C22.4354 3.25579 22.6073 3.22511 22.7806 3.20558C22.9258 3.20706 23.0707 3.21729 23.2146 3.23619C23.3675 3.25987 23.5183 3.29616 23.6652 3.3447C25.8073 4.06536 25.977 7.42101 25.6877 10.3426C25.6654 10.5485 25.6432 10.7544 25.6181 10.9547C25.4766 12.0773 25.2769 13.1918 25.02 14.2937C24.9942 14.4089 24.9695 14.5104 24.9484 14.5967C24.9355 14.6499 24.9239 14.6974 24.9143 14.7389C24.8837 14.8669 24.8642 14.9364 24.8642 14.9364L24.8114 14.5858V14.5385C24.6973 13.6621 24.255 12.5296 23.7153 11.3777C23.0849 10.103 22.3995 8.85678 21.6612 7.64235C20.3863 8.0566 18.4647 8.62056 16.0106 9.16474C15.5321 9.27048 15.0369 9.37621 14.5167 9.47916C13.8101 9.62014 13.0683 9.75741 12.2913 9.89097C9.20617 10.4113 7.80133 9.50699 7.18654 8.34393C7.13729 8.25353 7.09273 8.16066 7.05301 8.06568C6.47717 6.67445 6.89166 5.04114 6.89166 5.04114C7.05301 5.38338 7.40909 5.41678 7.92095 5.23592C8.01569 5.203 8.10856 5.16491 8.19914 5.12184C8.88684 4.81889 9.79267 4.23356 10.8402 3.55665C12.6021 2.41815 14.7648 1.02061 16.9648 0.272015C17.4005 0.118665 17.8605 0.046064 18.3223 0.0577691C18.541 0.0655046 18.7582 0.0962781 18.9705 0.149586C19.6602 0.337793 20.2848 0.712258 20.7759 1.23196C20.851 1.30987 20.9261 1.38778 20.9985 1.46847C21.4443 1.9844 21.8246 2.55357 22.1307 3.16298C22.1565 3.21232 22.182 3.26189 22.207 3.31156Z" fill="#A16929"/>
<path d="M9.37967 5.29407C9.28787 5.57231 8.99021 11.0426 9.27396 13.5246L11.8972 6.64356L9.37967 5.29407Z" fill="#A16929"/>
<path d="M21.0049 1.45779C20.3289 2.22297 19.6418 2.97423 18.8907 3.68376C16.8126 5.6593 14.4063 7.37329 11.6022 8.13569C10.2113 8.50854 8.5867 8.74226 7.18743 8.34437C7.13818 8.25397 7.09362 8.1611 7.0539 8.06613C7.17352 8.1023 7.29315 8.13012 7.42389 8.15794C9.92756 8.66991 12.7094 7.76005 14.8654 6.48847C17.1257 5.09271 19.1275 3.31635 20.7823 1.23798C20.8575 1.29919 20.9326 1.3771 21.0049 1.45779Z" fill="#C98643"/>
<path d="M18.978 0.138624C17.7095 2.22825 16.0432 4.07025 14.1126 5.26392C12.5436 6.23222 10.7744 6.59394 9.00788 6.00127C8.57214 5.86603 8.19164 5.59377 7.92295 5.22496C8.01769 5.19204 8.11056 5.15396 8.20114 5.11088C8.36547 5.29232 8.56523 5.43816 8.7881 5.53938C9.72173 5.95701 10.767 6.05482 11.7619 5.81763C13.4533 5.40861 14.9249 4.27615 16.1044 3.03517C16.9556 2.12747 17.7021 1.12692 18.3299 0.0523682C18.5483 0.0582805 18.7656 0.0871914 18.978 0.138624Z" fill="#C98643"/>
<path d="M22.3899 3.66362C21.1673 5.09441 19.8049 6.39938 18.3228 7.55907C17.588 8.1432 16.8158 8.67858 16.0111 9.16176C15.5326 9.26749 15.0374 9.37323 14.5172 9.47618C16.0547 8.77782 17.4739 7.84373 18.7234 6.70764C19.9586 5.61884 21.1003 4.42842 22.1367 3.14886C22.2257 3.32138 22.3092 3.49389 22.3899 3.66362Z" fill="#C98643"/>
<path d="M12.3392 11.5911C11.5046 12.1031 11.0067 13.3579 11.5046 14.1676C11.5269 14.2094 11.6131 14.1927 11.6076 14.1454C11.5681 13.7708 11.6137 13.3921 11.7408 13.0375C11.868 12.6829 12.0735 12.3616 12.342 12.0975C12.7007 11.7704 13.1669 11.5863 13.6522 11.58C14.2086 11.5438 14.4534 12.0419 14.8902 12.2116C14.9792 12.2478 15.0932 12.1893 15.0626 12.0975C14.7177 11.0569 13.1932 11.0736 12.3392 11.5911Z" fill="#390A0A"/>
<path d="M15.2846 13.9287C15.2846 15.2781 14.45 16.3744 13.4319 16.3744C12.4137 16.3744 11.5819 15.2781 11.5819 13.9287C11.5819 12.5792 12.4165 11.4829 13.4319 11.4829C14.4472 11.4829 15.2846 12.5792 15.2846 13.9287Z" fill="white"/>
<path d="M14.8937 14.0008C14.8937 15.0053 14.2622 15.8205 13.4833 15.8205C12.7044 15.8205 12.0729 15.0053 12.0729 14.0008C12.0729 12.9963 12.7044 12.1783 13.4833 12.1783C14.2622 12.1783 14.8937 13.0019 14.8937 14.0008Z" fill="#3D79CA"/>
<path d="M14.6677 14.0287C14.6677 14.8634 14.1502 15.5646 13.5132 15.5646C12.8761 15.5646 12.3587 14.8773 12.3587 14.0287C12.3587 13.18 12.8761 12.4927 13.5132 12.4927C14.1502 12.4927 14.6677 13.1828 14.6677 14.0287Z" fill="#390A0A"/>
<path d="M14.8926 12.7071C14.8926 12.8741 14.5644 13.0076 14.161 13.0076C13.7576 13.0076 13.4322 12.8741 13.4322 12.7071C13.4322 12.5402 13.7604 12.4038 14.161 12.4038C14.5616 12.4038 14.8926 12.5374 14.8926 12.7071Z" fill="white"/>
<path d="M21.7413 11.5911C22.5759 12.1031 23.0738 13.3579 22.5759 14.1676C22.5536 14.2094 22.4674 14.1927 22.4729 14.1454C22.5124 13.7708 22.4669 13.3921 22.3397 13.0375C22.2126 12.6829 22.0071 12.3616 21.7385 12.0975C21.3808 11.7706 20.9156 11.5865 20.4311 11.58C19.8747 11.5438 19.6271 12.0419 19.1904 12.2116C19.1013 12.2478 18.9873 12.1893 19.0179 12.0975C19.3628 11.0569 20.8873 11.0736 21.7413 11.5911Z" fill="#390A0A"/>
<path d="M22.3654 13.9287C22.3654 15.2781 21.5308 16.3744 20.5155 16.3744C19.5001 16.3744 18.6655 15.2781 18.6655 13.9287C18.6655 12.5792 19.5001 11.4829 20.5155 11.4829C21.5308 11.4829 22.3654 12.5792 22.3654 13.9287Z" fill="white"/>
<path d="M21.9724 14.0008C21.9724 15.0053 21.3409 15.8205 20.562 15.8205C19.783 15.8205 19.1516 15.0136 19.1516 14.0008C19.1516 12.988 19.783 12.1783 20.5592 12.1783C21.3353 12.1783 21.9724 13.0019 21.9724 14.0008Z" fill="#3D79CA"/>
<path d="M21.7508 14.0287C21.7508 14.8634 21.2333 15.5646 20.5935 15.5646C19.9537 15.5646 19.439 14.8773 19.439 14.0287C19.439 13.18 19.9564 12.4927 20.5935 12.4927C21.2305 12.4927 21.7508 13.1828 21.7508 14.0287Z" fill="#390A0A"/>
<path d="M21.9726 12.7071C21.9726 12.8741 21.6472 13.0076 21.2438 13.0076C20.8404 13.0076 20.5149 12.8741 20.5149 12.7071C20.5149 12.5402 20.8404 12.4038 21.2438 12.4038C21.6472 12.4038 21.9726 12.5374 21.9726 12.7071Z" fill="white"/>
<path d="M16.9889 12.7484C16.9889 12.7484 16.4326 12.1919 16.3324 14.173C16.2323 16.1541 16.3324 18.2242 16.3324 18.2242C16.3324 18.2242 15.0194 17.4563 15.4561 18.5526C15.6926 19.1424 16.249 19.4457 16.8471 19.6016C17.0643 19.6644 17.295 19.6637 17.5119 19.5996C17.7288 19.5355 17.9228 19.4107 18.0711 19.2398C18.2269 19.0868 19.0392 18.2632 18.7832 18.0072C18.6608 17.882 17.9487 18.1769 17.7679 18.2242C17.7623 18.2242 17.9737 12.3115 16.9889 12.7484Z" fill="#E1A387"/>
<path d="M20.2646 20.7711C20.2646 20.7711 17.6858 25.1924 14.1251 20.938C14.1251 20.938 16.2003 20.2369 16.9598 20.8601L17.238 21.1745C17.238 21.1745 18.0391 20.1868 20.2646 20.7711Z" fill="#CE8D75"/>
<path d="M20.2646 20.7707C20.2646 20.7707 17.6858 25.192 14.1251 20.9376C14.1445 20.9376 17.6246 22.5348 20.2646 20.7707Z" fill="#E1A387"/>
<path d="M15.6305 10.5831C15.6305 11.0505 14.4382 10.787 12.981 10.787C11.5238 10.787 10.3315 11.0505 10.3315 10.5831C10.3315 10.1157 11.5211 9.09427 12.981 9.09427C14.4409 9.09427 15.6305 10.1157 15.6305 10.5831Z" fill="#343434"/>
<path d="M23.2841 10.5831C23.2841 11.0505 22.0945 10.787 20.6346 10.787C19.1747 10.787 17.9851 11.0505 17.9851 10.5831C17.9851 10.1157 19.1747 9.09427 20.6346 9.09427C22.0945 9.09427 23.2841 10.1157 23.2841 10.5831Z" fill="#343434"/>
</svg>
