<svg width="37" height="21" viewBox="0 0 37 21" fill="none" xmlns="http://www.w3.org/2000/svg">
<path fill-rule="evenodd" clip-rule="evenodd" d="M30.4528 7.78443C29.7913 7.78443 29.153 7.88347 28.5512 8.06596C27.4532 3.44065 23.2962 0 18.3347 0C13.4043 0 9.26819 3.39845 8.13952 7.98032C7.62969 7.85295 7.09665 7.78443 6.54743 7.78443C2.93142 7.78443 -3.05176e-05 10.7157 -3.05176e-05 14.3314C-3.05176e-05 17.9474 2.93142 20.8785 6.54743 20.8785H16.7335C17.2556 20.9584 17.7903 21 18.3347 21C18.8793 21 19.4141 20.9584 19.9362 20.8785H30.4528C34.0687 20.8785 37 17.9474 37 14.3314C37 10.7157 34.0687 7.78443 30.4528 7.78443Z" fill="#DDEEFB"/>
</svg>
